<svg width="40" height="40" viewBox="0 0 40 40" fill="none" xmlns="http://www.w3.org/2000/svg">
<path d="M34.2936 21.9205L35.2404 22.2424C35.363 21.8817 35.27 21.4828 35.0007 21.2134C34.7313 20.9441 34.3324 20.8511 33.9717 20.9737L34.2936 21.9205ZM17.373 5L18.3198 5.32184C18.4424 4.9612 18.3495 4.56224 18.0802 4.29289C17.8108 4.02355 17.4118 3.93061 17.0512 4.05321L17.373 5ZM30 23.6269C31.613 23.6269 33.1659 23.3601 34.6154 22.8673L33.9717 20.9737C32.7267 21.397 31.3912 21.6269 30 21.6269V23.6269ZM15.6666 9.2936C15.6666 17.2097 22.0839 23.6269 30 23.6269V21.6269C23.1885 21.6269 17.6666 16.1051 17.6666 9.2936H15.6666ZM16.4263 4.67816C15.9335 6.12773 15.6666 7.68054 15.6666 9.2936H17.6666C17.6666 7.90233 17.8966 6.56685 18.3198 5.32184L16.4263 4.67816ZM17.0512 4.05321C11.4008 5.97395 7.33331 11.3241 7.33331 17.6269H9.33331C9.33331 12.2065 12.8307 7.60028 17.6949 5.94679L17.0512 4.05321ZM7.33331 17.6269C7.33331 25.543 13.7506 31.9603 21.6666 31.9603V29.9603C14.8551 29.9603 9.33331 24.4384 9.33331 17.6269H7.33331ZM21.6666 31.9603C27.9694 31.9603 33.3196 27.8927 35.2404 22.2424L33.3468 21.5987C31.6933 26.4629 27.0871 29.9603 21.6666 29.9603V31.9603Z" fill="#E94F37"/>
</svg>
