<svg width="400" height="400" viewBox="0 0 400 400" fill="none" xmlns="http://www.w3.org/2000/svg">
<path fill-rule="evenodd" clip-rule="evenodd" d="M155.903 283.333C142.063 271.118 133.333 253.245 133.333 233.333C133.333 196.514 163.181 166.667 200 166.667C236.819 166.667 266.667 196.514 266.667 233.333C266.667 253.245 257.937 271.118 244.097 283.333H155.903Z" stroke="#E94F37" stroke-width="10"/>
<path d="M200 116.667V83.3333" stroke="#E94F37" stroke-width="10" stroke-linecap="round" stroke-linejoin="round"/>
<path d="M366.667 283.333H33.3333" stroke="#E94F37" stroke-width="10" stroke-linecap="round" stroke-linejoin="round"/>
<path d="M83.3332 233.333H33.3333" stroke="#E94F37" stroke-width="10" stroke-linecap="round" stroke-linejoin="round"/>
<path d="M366.667 233.333H316.667" stroke="#E94F37" stroke-width="10" stroke-linecap="round" stroke-linejoin="round"/>
<path d="M282.496 150.838L317.851 115.482" stroke="#E94F37" stroke-width="10" stroke-linecap="round" stroke-linejoin="round"/>
<path d="M82.1489 115.482L117.504 150.838" stroke="#E94F37" stroke-width="10" stroke-linecap="round" stroke-linejoin="round"/>
<path d="M79.72 352.36V339.28L119.32 286H139.72L100.96 339.28L91.48 336.52H157.6V352.36H79.72ZM124.96 370V352.36L125.56 336.52V320.8H143.92V370H124.96ZM199.414 371.44C192.534 371.44 186.374 369.76 180.934 366.4C175.494 362.96 171.214 358 168.094 351.52C164.974 345.04 163.414 337.2 163.414 328C163.414 318.8 164.974 310.96 168.094 304.48C171.214 298 175.494 293.08 180.934 289.72C186.374 286.28 192.534 284.56 199.414 284.56C206.374 284.56 212.534 286.28 217.894 289.72C223.334 293.08 227.614 298 230.734 304.48C233.854 310.96 235.414 318.8 235.414 328C235.414 337.2 233.854 345.04 230.734 351.52C227.614 358 223.334 362.96 217.894 366.4C212.534 369.76 206.374 371.44 199.414 371.44ZM199.414 355C202.694 355 205.534 354.08 207.934 352.24C210.414 350.4 212.334 347.48 213.694 343.48C215.134 339.48 215.854 334.32 215.854 328C215.854 321.68 215.134 316.52 213.694 312.52C212.334 308.52 210.414 305.6 207.934 303.76C205.534 301.92 202.694 301 199.414 301C196.214 301 193.374 301.92 190.894 303.76C188.494 305.6 186.574 308.52 185.134 312.52C183.774 316.52 183.094 321.68 183.094 328C183.094 334.32 183.774 339.48 185.134 343.48C186.574 347.48 188.494 350.4 190.894 352.24C193.374 354.08 196.214 355 199.414 355ZM243.9 352.36V339.28L283.5 286H303.9L265.14 339.28L255.66 336.52H321.78V352.36H243.9ZM289.14 370V352.36L289.74 336.52V320.8H308.1V370H289.14Z" fill="#E94F37"/>
</svg>
