<svg width="40" height="40" viewBox="0 0 40 40" fill="none" xmlns="http://www.w3.org/2000/svg">
<path fill-rule="evenodd" clip-rule="evenodd" d="M20 26.6667C23.6819 26.6667 26.6666 23.6819 26.6666 20C26.6666 16.3181 23.6819 13.3333 20 13.3333C16.3181 13.3333 13.3333 16.3181 13.3333 20C13.3333 23.6819 16.3181 26.6667 20 26.6667Z" stroke="#E94F37" stroke-width="2"/>
<path d="M20 8.33333V5" stroke="#E94F37" stroke-width="2" stroke-linecap="round" stroke-linejoin="round"/>
<path d="M20 35V31.6667" stroke="#E94F37" stroke-width="2" stroke-linecap="round" stroke-linejoin="round"/>
<path fill-rule="evenodd" clip-rule="evenodd" d="M8.33331 20H3.33331H8.33331Z" stroke="#E94F37" stroke-width="2" stroke-linecap="round" stroke-linejoin="round"/>
<path fill-rule="evenodd" clip-rule="evenodd" d="M36.6667 20H31.6667H36.6667Z" stroke="#E94F37" stroke-width="2" stroke-linecap="round" stroke-linejoin="round"/>
<path fill-rule="evenodd" clip-rule="evenodd" d="M28.2496 11.7504L31.7851 8.21489L28.2496 11.7504Z" stroke="#E94F37" stroke-width="2" stroke-linecap="round" stroke-linejoin="round"/>
<path fill-rule="evenodd" clip-rule="evenodd" d="M8.2149 31.7851L11.7504 28.2496L8.2149 31.7851Z" stroke="#E94F37" stroke-width="2" stroke-linecap="round" stroke-linejoin="round"/>
<path fill-rule="evenodd" clip-rule="evenodd" d="M28.2496 28.2496L31.7851 31.7851L28.2496 28.2496Z" stroke="#E94F37" stroke-width="2" stroke-linecap="round" stroke-linejoin="round"/>
<path fill-rule="evenodd" clip-rule="evenodd" d="M8.2149 8.21489L11.7504 11.7504L8.2149 8.21489Z" stroke="#E94F37" stroke-width="2" stroke-linecap="round" stroke-linejoin="round"/>
</svg>
